<svg width="96" height="141" viewBox="0 0 96 141" fill="none" xmlns="http://www.w3.org/2000/svg">
<circle cx="48" cy="48" r="48" fill="#4A9EDB"/>
<path fill-rule="evenodd" clip-rule="evenodd" d="M63 41.3333C64.8333 41.3333 66.3333 42.8333 66.3333 44.6666L66.3166 44.8L66.3333 44.8166V48C66.3333 48.4333 66.25 48.8333 66.1 49.2166L61.0666 60.9666C60.5666 62.1666 59.3833 63 58 63H43C41.1666 63 39.6666 61.5 39.6666 59.6666V43C39.6666 42.0833 40.0333 41.25 40.65 40.65L51.6166 29.6666L53.3833 31.4166C53.8333 31.8666 54.1166 32.5 54.1166 33.1833L54.0666 33.7166L52.4833 41.3333H63ZM36.3333 63H29.6666V43H36.3333V63Z" fill="white"/>
<path d="M44.2646 127.692C44.2646 127.118 44.0479 126.661 43.6143 126.321C43.1807 125.981 42.5918 125.812 41.8477 125.812C41.209 125.812 40.6758 125.981 40.248 126.321C39.8203 126.655 39.6064 127.089 39.6064 127.622H37.3916C37.3916 126.925 37.585 126.304 37.9717 125.759C38.3584 125.214 38.8945 124.792 39.5801 124.493C40.2656 124.188 41.0215 124.036 41.8477 124.036C43.3125 124.036 44.4492 124.355 45.2578 124.994C46.0723 125.633 46.4795 126.526 46.4795 127.675C46.4795 128.255 46.3037 128.788 45.9521 129.274C45.6006 129.761 45.1084 130.145 44.4756 130.426C45.1904 130.672 45.7354 131.047 46.1104 131.551C46.4912 132.049 46.6816 132.67 46.6816 133.414C46.6816 134.562 46.2422 135.477 45.3633 136.156C44.4844 136.83 43.3125 137.167 41.8477 137.167C40.9453 137.167 40.1279 137.006 39.3955 136.684C38.6689 136.361 38.1211 135.922 37.752 135.365C37.3887 134.809 37.207 134.17 37.207 133.449H39.4219C39.4219 134 39.6504 134.466 40.1074 134.847C40.5645 135.222 41.1445 135.409 41.8477 135.409C42.6328 135.409 43.2627 135.225 43.7373 134.855C44.2178 134.486 44.458 134.006 44.458 133.414C44.458 132.693 44.2471 132.172 43.8252 131.85C43.4092 131.521 42.7969 131.357 41.9883 131.357H40.4854V129.6H41.9092C43.4795 129.6 44.2646 128.964 44.2646 127.692ZM55.9102 134.021H50.9531L49.916 137H47.6045L52.4385 124.203H54.4336L59.2764 137H56.9561L55.9102 134.021ZM51.5771 132.228H55.2861L53.4316 126.919L51.5771 132.228Z" fill="#4A9EDB"/>
</svg>
