<svg width="96" height="141" viewBox="0 0 96 141" fill="none" xmlns="http://www.w3.org/2000/svg">
<path fill-rule="evenodd" clip-rule="evenodd" d="M38.0001 33H53.0001C54.8334 33 56.3334 34.5 56.3334 36.3333V53C56.3334 53.9167 55.9667 54.75 55.3667 55.35L44.3834 66.3333L42.6167 64.5833C42.1667 64.1333 41.8834 63.5 41.8834 62.8167L41.9334 62.2833L43.5167 54.6667H33.0001C31.1667 54.6667 29.6667 53.1667 29.6667 51.3333L29.6834 51.2L29.6667 51.1833V48C29.6667 47.5667 29.7501 47.1667 29.9001 46.7833L34.9334 35.0333C35.4334 33.8333 36.6167 33 38.0001 33ZM59.6668 53V33H66.3334V53H59.6668Z" fill="#4A9EDB"/>
<circle cx="48" cy="48" r="46" stroke="#4A9EDB" stroke-width="4"/>
<path d="M29.4258 137H27.2109V125.996H21.5771V137H19.3623V124.203H29.4258V137ZM34.3389 132.245V137H32.1152V124.203H37.0107C38.4404 124.203 39.5742 124.575 40.4121 125.319C41.2559 126.063 41.6777 127.048 41.6777 128.272C41.6777 129.526 41.2646 130.502 40.4385 131.199C39.6182 131.896 38.4668 132.245 36.9844 132.245H34.3389ZM34.3389 130.461H37.0107C37.8018 130.461 38.4053 130.276 38.8213 129.907C39.2373 129.532 39.4453 128.993 39.4453 128.29C39.4453 127.599 39.2344 127.048 38.8125 126.638C38.3906 126.222 37.8105 126.008 37.0723 125.996H34.3389V130.461ZM53.8418 130.936C53.8418 132.189 53.625 133.291 53.1914 134.24C52.7578 135.184 52.1367 135.91 51.3281 136.42C50.5254 136.924 49.5996 137.176 48.5508 137.176C47.5137 137.176 46.5879 136.924 45.7734 136.42C44.9648 135.91 44.3379 135.187 43.8926 134.249C43.4531 133.312 43.2305 132.23 43.2246 131.006V130.285C43.2246 129.037 43.4443 127.936 43.8838 126.98C44.3291 126.025 44.9531 125.296 45.7559 124.792C46.5645 124.282 47.4902 124.027 48.5332 124.027C49.5762 124.027 50.499 124.279 51.3018 124.783C52.1104 125.281 52.7344 126.002 53.1738 126.945C53.6133 127.883 53.8359 128.976 53.8418 130.224V130.936ZM51.6182 130.268C51.6182 128.85 51.3486 127.763 50.8096 127.007C50.2764 126.251 49.5176 125.873 48.5332 125.873C47.5723 125.873 46.8193 126.251 46.2744 127.007C45.7354 127.757 45.46 128.82 45.4482 130.197V130.936C45.4482 132.342 45.7207 133.429 46.2656 134.196C46.8164 134.964 47.5781 135.348 48.5508 135.348C49.5352 135.348 50.291 134.973 50.8184 134.223C51.3516 133.473 51.6182 132.377 51.6182 130.936V130.268ZM64.5469 125.996H60.5566V137H58.3506V125.996H54.3955V124.203H64.5469V125.996ZM74.0742 124.203H76.2979V137H74.0742V127.886L68.458 137H66.2344V124.203H68.458V133.326L74.0742 124.203Z" fill="#4A9EDB"/>
</svg>
